<svg xmlns="http://www.w3.org/2000/svg" version="1.1" xmlns:xlink="http://www.w3.org/1999/xlink" x="0" y="0" viewBox="0 0 24 24" style="enable-background:new 0 0 512 512" xml:space="preserve"><g><linearGradient id="a" x1="3.541" x2="19.942" y1="8.055" y2="15.703" gradientUnits="userSpaceOnUse"><stop offset="0" stop-color="#fff" stop-opacity=".2"/><stop offset="1" stop-color="#fff" stop-opacity="0"/></linearGradient><path fill="#0a99d6" d="M0 16.999h2.087s2.413-.035 4.174-5.555l2.087-2.222c1.732 6.725 2.413 7.777 3.652 7.777l4.697.001c1.272 0 2.575-.938 7.303-10h-4.174c-2.315 0-3.228 4.27-4.174 7.777C14.022 8.527 13.696 7 11.478 7H6.783C4.663 7 2.315 8.701 0 16.999z" opacity="1" data-original="#0a99d6"/><path fill="#fff" d="M6.783 7.25h4.695s2.544 1.528 4.174 7.777c.946-3.507 1.859-7.777 4.174-7.777h4.042L24 7h-4.174c-2.315 0-3.228 4.27-4.174 7.777C14.022 8.527 13.696 7 11.478 7H6.783C4.663 7 2.315 8.701 0 16.999c0 0 1.078-3.229 1.58-4.433C3.37 8.272 5.145 7.25 6.783 7.25z" opacity=".2"/><path fill="#010101" d="M16.697 16.75 12 16.749c-1.239 0-1.92-1.052-3.652-7.777L6.26 11.194c-1.761 5.52-2.565 5.555-4.174 5.555H.073c-.024.086-.049.162-.073.25h2.087s2.413-.035 4.174-5.555l2.087-2.222c1.732 6.725 2.413 7.777 3.652 7.777l4.697.001c1.271 0 2.575-.938 7.303-10 0 0-.84 1.343-1.164 1.944-3.789 7.015-4.98 7.806-6.14 7.806z" opacity=".1"/><path fill="url(#a)" d="M0 16.999h2.087s2.413-.035 4.174-5.555l2.087-2.222c1.732 6.725 2.413 7.777 3.652 7.777l4.697.001c1.272 0 2.575-.938 7.303-10h-4.174c-2.315 0-3.228 4.27-4.174 7.777C14.022 8.527 13.696 7 11.478 7H6.783C4.663 7 2.315 8.701 0 16.999z"/></g></svg>